<?xml version="1.0" standalone="no"?><!DOCTYPE svg PUBLIC "-//W3C//DTD SVG 1.1//EN" "http://www.w3.org/Graphics/SVG/1.1/DTD/svg11.dtd"><svg t="1717150864747" class="icon" viewBox="0 0 1024 1024" version="1.1" xmlns="http://www.w3.org/2000/svg" p-id="4978" xmlns:xlink="http://www.w3.org/1999/xlink" width="200" height="200"><path d="M512 97.52381c228.912762 0 414.47619 185.563429 414.47619 414.47619s-185.563429 414.47619-414.47619 414.47619S97.52381 740.912762 97.52381 512 283.087238 97.52381 512 97.52381z m-12.190476 170.666666c-19.309714 0-36.035048 34.669714-45.031619 51.395048l-23.942095 57.197714a146.285714 146.285714 0 0 1-78.433524 78.433524l-57.197715 23.942095C278.479238 488.17981 243.809524 504.880762 243.809524 524.190476s34.669714 36.035048 51.395047 45.031619l57.197715 23.942095a146.285714 146.285714 0 0 1 78.433524 78.433524l23.942095 57.197715c9.020952 16.725333 25.721905 51.395048 45.031619 51.395047s36.035048-34.669714 45.031619-51.395047l23.942095-57.197715a146.285714 146.285714 0 0 1 78.433524-78.433524l57.197714-23.942095C721.13981 560.201143 755.809524 543.50019 755.809524 524.190476s-34.669714-36.035048-51.395048-45.031619l-57.197714-23.942095a146.285714 146.285714 0 0 1-78.433524-78.433524l-23.942095-57.197714C535.82019 302.86019 519.119238 268.190476 499.809524 268.190476z" p-id="4979"></path></svg>