<?xml version="1.0" standalone="no"?><!DOCTYPE svg PUBLIC "-//W3C//DTD SVG 1.1//EN" "http://www.w3.org/Graphics/SVG/1.1/DTD/svg11.dtd"><svg t="1717145081114" class="icon" viewBox="0 0 1024 1024" version="1.1" xmlns="http://www.w3.org/2000/svg" p-id="4256" xmlns:xlink="http://www.w3.org/1999/xlink" width="200" height="200"><path d="M713 62.5l-307.6 55.7-106.1-55.7-96.6 285.6h609L713 62.5zM307.8 279.8l43-119 88 23 226-41 42 137h-399zM512 488c115.3 0 225.1 15 325 42h186c-145.2-66.8-321.2-106-511-106S146.2 463.2 1.1 530h186c99.8-27 209.6-42 324.9-42zM724 608c-38.5 0-73.8 13.6-101.4 36.2-35.6-7.8-72.6-12-110.6-12s-75 4.2-110.6 12C373.8 621.6 338.5 608 300 608c-88.4 0-160 71.6-160 160s71.6 160 160 160 160-71.6 160-160c0-23.9-5.2-46.5-14.6-66.8 21.7-3.2 44-4.9 66.6-4.9s44.9 1.7 66.6 4.9c-9.4 20.3-14.6 43-14.6 66.8 0 88.4 71.6 160 160 160s160-71.6 160-160-71.6-160-160-160zM300 864c-53 0-96-43-96-96s43-96 96-96 96 43 96 96-43 96-96 96z m424 0c-53 0-96-43-96-96s43-96 96-96 96 43 96 96-43 96-96 96z" p-id="4257"></path></svg>